<svg xmlns="http://www.w3.org/2000/svg"
  xmlns:xlink="http://www.w3.org/1999/xlink" width="48" height="48" fill="none">
  <path fill="#f5f8f6" d="M24 48c13.255 0 24-10.745 24-24S37.255 0 24 0 0 10.745 0 24s10.745 24 24 24"/>
  <path fill="#1a2532" d="M24 1.029a22.978 22.978 0 0 1 8.941 44.138A22.978 22.978 0 0 1 15.059 2.833 22.8 22.8 0 0 1 24 1.033M24 0C10.745 0 0 10.745 0 24s10.745 24 24 24 24-10.745 24-24S37.255 0 24 0"/>
  <path fill="#f5f8f6" d="M24 45c11.598 0 21-9.402 21-21S35.598 3 24 3 3 12.402 3 24s9.402 21 21 21"/>
  <path fill="#1a2532" d="M24 3.9a20.106 20.106 0 0 1 7.824 38.621A20.107 20.107 0 0 1 16.176 5.479 20 20 0 0 1 24 3.9m0-.9C12.4 3 3 12.4 3 24s9.4 21 21 21 21-9.4 21-21S35.6 3 24 3"/>
  <path fill="url(#a)" d="M36.393 32.172a1.2 1.2 0 1 1 .367-2.216l.025.016a1.2 1.2 0 0 1-.392 2.2"/>
  <path fill="url(#b)" d="M36.348 31.944a.968.968 0 1 1 .295-1.787l.02.013a.967.967 0 0 1-.315 1.774"/>
  <path fill="url(#c)" d="M30.647 37.274a1.2 1.2 0 1 1 1.425-1.736c0 .01.01.017.014.026a1.2 1.2 0 0 1-1.439 1.71"/>
  <path fill="url(#d)" d="M30.722 37.054a.967.967 0 1 1 .62-1.833.967.967 0 0 1-.62 1.833"/>
  <path fill="url(#e)" d="M37.274 17.353a1.2 1.2 0 1 1-1.736-1.425l.026-.014a1.2 1.2 0 0 1 1.71 1.439"/>
  <path fill="url(#f)" d="M37.054 17.278a.967.967 0 1 1-1.4-1.149l.021-.01a.967.967 0 0 1 1.379 1.16Z"/>
  <path fill="url(#g)" d="M24 32.783a8.783 8.783 0 1 0 0-17.566 8.783 8.783 0 0 0 0 17.566"/>
  <path fill="#f5f8f6" d="M25.5 29a8 8 0 1 0 0-16 8 8 0 0 0 0 16"/>
  <path fill="#1a2532" d="M24 16a8 8 0 1 1-8 8 8.01 8.01 0 0 1 8-8m0-.781a8.783 8.783 0 1 0 0 17.57 8.783 8.783 0 0 0 0-17.572z"/>
  <path fill="url(#h)" d="M38.819 24.881a1.2 1.2 0 1 1-.791-2.1h.03a1.2 1.2 0 0 1 .761 2.1"/>
  <path fill="url(#i)" d="M38.666 24.706a.969.969 0 1 1-.638-1.695h.024a.967.967 0 0 1 .614 1.694z"/>
  <path fill="url(#j)" d="M32.172 11.607a1.2 1.2 0 1 1-2.216-.367l.016-.025a1.2 1.2 0 0 1 2.2.392"/>
  <path fill="url(#k)" d="M31.944 11.652a.967.967 0 1 1-1.787-.3l.013-.021a.967.967 0 0 1 1.774.32Z"/>
  <path fill="url(#l)" d="M24.881 9.18a1.2 1.2 0 1 1-2.1.792v-.03a1.2 1.2 0 0 1 2.1-.761Z"/>
  <path fill="url(#m)" d="M24.706 9.334a.969.969 0 1 1-1.453 1.28.969.969 0 0 1 1.452-1.28z"/>
  <path fill="url(#n)" d="M23.905 39.212a1.2 1.2 0 1 0 0-2.4 1.2 1.2 0 0 0 0 2.4"/>
  <path fill="url(#o)" d="M23.905 39.024a1.012 1.012 0 1 0 0-2.024 1.012 1.012 0 0 0 0 2.024"/>
  <path fill="#1a2532" d="M24 42.8a.8.8 0 0 1-.8-.8v-8a.8.8 0 0 1 .8-.8V32a8 8 0 0 1-3.325-15.278l.185-.082A8 8 0 0 1 24 16v-1.2a.8.8 0 0 1-.8-.8V6a.8.8 0 0 1 .8-.8V3.8q-1.162 0-2.316.132l-.258.03-.206.028q-.24.033-.478.072l-.071.011A20.3 20.3 0 0 0 12.2 7.606l-.04.029q-.15.108-.3.22t-.3.229l-.027.022a20.3 20.3 0 0 0-4.297 4.615l-.006.008q-.126.187-.247.377l-.06.093-.186.3-.1.167q-.07.116-.137.234l-.135.237-.094.169c-.056.1-.112.208-.166.313q-.026.047-.052.1-.103.2-.2.4v.009A20.6 20.6 0 0 0 4 21.155q.001.018-.005.036a35 35 0 0 0-.09.744v.046q-.1 1-.1 2.019a20.2 20.2 0 0 0 .62 4.993l.065.241c.022.081.04.155.062.232a20.3 20.3 0 0 0 4.24 7.823l.178.211.165.181q.285.308.58.607a21 21 0 0 0 1.762 1.567l.142.112a19 19 0 0 0 1.209.87l.147.1.476.3.02.013a20.3 20.3 0 0 0 8.58 2.863l.072.006q.224.022.454.037l.342.021.132.007q.472.022.949.022zM14.6 7.72a.8.8 0 0 1 1.093.292l4 6.928a.8.8 0 1 1-1.386.799l-4-6.928a.8.8 0 0 1 .293-1.092ZM7.719 14.6a.8.8 0 0 1 1.09-.294l6.928 4a.8.8 0 0 1 .315 1.051l-.022.042a.797.797 0 0 1-1.093.293l-6.928-4a.8.8 0 0 1-.29-1.092m-1.72 10.2A.8.8 0 1 1 6 23.2h8a.8.8 0 0 1 .8.727V24a1 1 0 0 1-.01.114.7.7 0 0 1-.035.149l-.01.026A.8.8 0 0 1 14 24.8H6Zm2.813 8.893a.8.8 0 0 1-.8-1.386l.043-.025 6.885-3.975a.8.8 0 0 1 1.086.282l.007.011a.8.8 0 0 1-.293 1.093zm10.88-.633-4 6.928a.8.8 0 1 1-1.385-.8l4-6.928a.8.8 0 0 1 1.386.8Z"/>
  <path fill="#1a2532" d="M19.237 21.47a7.96 7.96 0 0 1 1.623-4.83l-.185.082A8 8 0 0 0 24 32v-3.214a8 8 0 0 1-4.763-7.316"/>
  <path fill="url(#p)" d="M19.237 21.47a7.96 7.96 0 0 1 1.623-4.83l-.185.082A8 8 0 0 0 24 32v-3.214a8 8 0 0 1-4.763-7.316"/>
  <path fill="#8eb5d5" d="M19.237 21.47A8 8 0 0 0 24 28.786V16a8 8 0 0 0-3.14.64 7.96 7.96 0 0 0-1.623 4.83"/>
  <path fill="url(#q)" d="M16.135 29.085a.8.8 0 0 0-.1-.485l-.007-.01-6.887 3.974a.8.8 0 0 1-1.086-.282l-.043.025a.8.8 0 0 0 .8 1.386l6.928-4a.8.8 0 0 0 .395-.608"/>
  <path fill="url(#r)" d="m14.746 24.289.009-.026a.7.7 0 0 0 .036-.149H6.856a.8.8 0 0 1-.696-.406.8.8 0 0 1-.096-.508H6a.8.8 0 0 0-.768.577A.8.8 0 0 0 6 24.8h8a.8.8 0 0 0 .746-.511"/>
  <path fill="url(#s)" d="m8.012 15.693 6.928 4a.8.8 0 0 0 1.093-.293l.022-.042a.8.8 0 0 1-.16-.07l-6.928-4a.8.8 0 0 1-.316-1.051.8.8 0 0 0-.636 1.457z"/>
  <path fill="url(#t)" d="M18.307 15.74a.8.8 0 0 0 1.231.193.8.8 0 0 1-.366-.329l-4-6.928a.8.8 0 0 1 .155-.993.8.8 0 0 0-1.02 1.13z"/>
  <path fill="#f5f8f6" d="m15.172 8.675 4 6.928a.8.8 0 0 0 .366.329.8.8 0 0 0 .155-.992l-4-6.928a.8.8 0 0 0-.366-.33.8.8 0 0 0-.155.993"/>
  <path fill="url(#u)" d="m19.586 32.42-4 6.928a.8.8 0 0 1-1.361.04.8.8 0 0 0 1.468.6l4-6.928a.8.8 0 0 0-.025-.84.8.8 0 0 1-.082.2"/>
  <path fill="#f5f8f6" d="M14.493 39.64a.8.8 0 0 0 1.093-.292l4-6.928a.8.8 0 0 0 .082-.2.8.8 0 0 0-1.361.04l-4 6.928a.8.8 0 0 0-.082.2.8.8 0 0 0 .268.253Z"/>
  <path fill="#1a2532" d="M23.642 42.155a.8.8 0 0 1-.441-.132.8.8 0 0 0 .8.777v-.731a.8.8 0 0 1-.359.086"/>
  <path fill="url(#v)" d="M23.642 42.155a.8.8 0 0 1-.441-.132.8.8 0 0 0 .8.777v-.731a.8.8 0 0 1-.36.086Z"/>
  <path fill="#f5f8f6" d="M23.2 34v8.023a.8.8 0 0 0 .8.046V33.2a.8.8 0 0 0-.8.8"/>
  <path fill="#b8bab9" d="M23.2 6v8a.8.8 0 0 0 .8.8v-.278a.8.8 0 0 1-.281-.609v-8A.8.8 0 0 1 24 5.307V5.2a.8.8 0 0 0-.8.8"/>
  <path fill="#f5f8f6" d="M24 6v-.693a.8.8 0 0 0-.281.606v8a.8.8 0 0 0 .281.609z"/>
  <path fill="#1a2532" d="M24.05 3.037h-.1v41.826h.1z"/>
  <path fill="#1a2532" d="M24.4 3.037h-.8v41.826h.8z"/>
  <path fill="#1a2532" d="M24.45 44.913h-.9V2.987h.9zm-.8-.1h.7V3.087h-.7z"/>
  <path fill="url(#w)" d="M20.048 11.219H37.64v17.232H20.048z"/>
  <path fill="#1a2532" d="M24 24.923a.6.6 0 0 1-.424-1.023l9.824-9.824a.6.6 0 0 1 .849.848l-9.824 9.824a.6.6 0 0 1-.425.175"/>
  <path fill="#1a2532" d="M24 25.5a1.5 1.5 0 1 0 0-3 1.5 1.5 0 0 0 0 3"/>
  <path fill="url(#x)" d="M11.096 13.139h19.512v18.288H11.096z"/>
  <path fill="#f5f8f6" d="m24.425 23.466-4.843-3.56a.7.7 0 1 0-.83 1.128l4.848 3.56a.7.7 0 0 0 .83-1.128z"/>
  <path fill="url(#y)" d="M19.424 19.427h9.168v9.144h-9.168z"/>
  <path fill="url(#z)" d="M25.049 23.593a1.124 1.124 0 1 1-1.023-.72 1.12 1.12 0 0 1 1.023.72"/>
  <path fill="#f5f8f6" d="M25.049 23.593c.074.19.094.398.058.6a1.125 1.125 0 0 1-2-.881 1.11 1.11 0 0 1 .92-.441 1.125 1.125 0 0 1 1.022.722"/>
  <defs>
    <radialGradient id="a" cx="0" cy="0" r="1" gradientTransform="rotate(60 -8.763 46.813)scale(1.2)" gradientUnits="userSpaceOnUse">
      <stop stop-color="#1a2532"/>
      <stop offset=".49" stop-color="#1c2734"/>
      <stop offset=".67" stop-color="#232d3a"/>
      <stop offset=".8" stop-color="#2e3945"/>
      <stop offset=".9" stop-color="#3f4954"/>
      <stop offset=".99" stop-color="#555e67"/>
      <stop offset="1" stop-color="#59626b"/>
    </radialGradient>
    <radialGradient id="b" cx="0" cy="0" r="1" gradientTransform="rotate(60 -8.763 46.813)scale(.968)" gradientUnits="userSpaceOnUse">
      <stop offset=".03" stop-color="#59626b" stop-opacity=".4"/>
      <stop offset=".42" stop-color="#4a545e" stop-opacity=".4"/>
      <stop offset=".94" stop-color="#202b37" stop-opacity=".4"/>
      <stop offset="1" stop-color="#1a2532" stop-opacity=".4"/>
    </radialGradient>
    <radialGradient id="c" cx="0" cy="0" r="1" gradientTransform="matrix(0 1.2 -1.2 0 31.032 36.14)" gradientUnits="userSpaceOnUse">
      <stop stop-color="#1a2532"/>
      <stop offset=".49" stop-color="#1c2734"/>
      <stop offset=".67" stop-color="#232d3a"/>
      <stop offset=".8" stop-color="#2e3945"/>
      <stop offset=".9" stop-color="#3f4954"/>
      <stop offset=".99" stop-color="#555e67"/>
      <stop offset="1" stop-color="#59626b"/>
    </radialGradient>
    <radialGradient id="d" cx="0" cy="0" r="1" gradientTransform="rotate(90 -2.553 33.585)scale(.968)" gradientUnits="userSpaceOnUse">
      <stop offset=".03" stop-color="#59626b" stop-opacity=".4"/>
      <stop offset=".42" stop-color="#4a545e" stop-opacity=".4"/>
      <stop offset=".94" stop-color="#202b37" stop-opacity=".4"/>
      <stop offset="1" stop-color="#1a2532" stop-opacity=".4"/>
    </radialGradient>
    <radialGradient id="e" cx="0" cy="0" r="1" gradientTransform="matrix(1.2 0 0 1.2 36.138 16.968)" gradientUnits="userSpaceOnUse">
      <stop stop-color="#1a2532"/>
      <stop offset=".49" stop-color="#1c2734"/>
      <stop offset=".67" stop-color="#232d3a"/>
      <stop offset=".8" stop-color="#2e3945"/>
      <stop offset=".9" stop-color="#3f4954"/>
      <stop offset=".99" stop-color="#555e67"/>
      <stop offset="1" stop-color="#59626b"/>
    </radialGradient>
    <radialGradient id="f" cx="0" cy="0" r="1" gradientTransform="translate(36.138 16.968)scale(.968)" gradientUnits="userSpaceOnUse">
      <stop offset=".03" stop-color="#59626b" stop-opacity=".4"/>
      <stop offset=".42" stop-color="#4a545e" stop-opacity=".4"/>
      <stop offset=".94" stop-color="#202b37" stop-opacity=".4"/>
      <stop offset="1" stop-color="#1a2532" stop-opacity=".4"/>
    </radialGradient>
    <radialGradient id="g" cx="0" cy="0" r="1" gradientTransform="translate(24 24)scale(8.783)" gradientUnits="userSpaceOnUse">
      <stop offset=".27" stop-color="#f5f8f6"/>
      <stop offset=".48" stop-color="#e8ebe9"/>
      <stop offset=".86" stop-color="#c6c8c7"/>
      <stop offset="1" stop-color="#b8bab9"/>
    </radialGradient>
    <radialGradient id="h" cx="0" cy="0" r="1" gradientTransform="rotate(30 -25.731 82.951)scale(1.2)" gradientUnits="userSpaceOnUse">
      <stop stop-color="#1a2532"/>
      <stop offset=".49" stop-color="#1c2734"/>
      <stop offset=".67" stop-color="#232d3a"/>
      <stop offset=".8" stop-color="#2e3945"/>
      <stop offset=".9" stop-color="#3f4954"/>
      <stop offset=".99" stop-color="#555e67"/>
      <stop offset="1" stop-color="#59626b"/>
    </radialGradient>
    <radialGradient id="i" cx="0" cy="0" r="1" gradientTransform="rotate(30 -25.731 82.95)scale(.968)" gradientUnits="userSpaceOnUse">
      <stop offset=".03" stop-color="#59626b" stop-opacity=".4"/>
      <stop offset=".42" stop-color="#4a545e" stop-opacity=".4"/>
      <stop offset=".94" stop-color="#202b37" stop-opacity=".4"/>
      <stop offset="1" stop-color="#1a2532" stop-opacity=".4"/>
    </radialGradient>
    <radialGradient id="j" cx="0" cy="0" r="1" gradientTransform="rotate(-30 37.593 -51.918)scale(1.2)" gradientUnits="userSpaceOnUse">
      <stop stop-color="#1a2532"/>
      <stop offset=".49" stop-color="#1c2734"/>
      <stop offset=".67" stop-color="#232d3a"/>
      <stop offset=".8" stop-color="#2e3945"/>
      <stop offset=".9" stop-color="#3f4954"/>
      <stop offset=".99" stop-color="#555e67"/>
      <stop offset="1" stop-color="#59626b"/>
    </radialGradient>
    <radialGradient id="k" cx="0" cy="0" r="1" gradientTransform="rotate(-30 37.594 -51.918)scale(.968)" gradientUnits="userSpaceOnUse">
      <stop offset=".03" stop-color="#59626b" stop-opacity=".4"/>
      <stop offset=".42" stop-color="#4a545e" stop-opacity=".4"/>
      <stop offset=".94" stop-color="#202b37" stop-opacity=".4"/>
      <stop offset="1" stop-color="#1a2532" stop-opacity=".4"/>
    </radialGradient>
    <radialGradient id="l" cx="0" cy="0" r="1" gradientTransform="rotate(-60 20.626 -15.78)scale(1.2)" gradientUnits="userSpaceOnUse">
      <stop stop-color="#1a2532"/>
      <stop offset=".49" stop-color="#1c2734"/>
      <stop offset=".67" stop-color="#232d3a"/>
      <stop offset=".8" stop-color="#2e3945"/>
      <stop offset=".9" stop-color="#3f4954"/>
      <stop offset=".99" stop-color="#555e67"/>
      <stop offset="1" stop-color="#59626b"/>
    </radialGradient>
    <radialGradient id="m" cx="0" cy="0" r="1" gradientTransform="rotate(-60 20.626 -15.78)scale(.968)" gradientUnits="userSpaceOnUse">
      <stop offset=".03" stop-color="#59626b" stop-opacity=".4"/>
      <stop offset=".42" stop-color="#4a545e" stop-opacity=".4"/>
      <stop offset=".94" stop-color="#202b37" stop-opacity=".4"/>
      <stop offset="1" stop-color="#1a2532" stop-opacity=".4"/>
    </radialGradient>
    <radialGradient id="n" cx="0" cy="0" r="1" gradientTransform="matrix(1.2 0 0 1.2 23.905 38.012)" gradientUnits="userSpaceOnUse">
      <stop stop-color="#1a2532"/>
      <stop offset=".49" stop-color="#1c2734"/>
      <stop offset=".67" stop-color="#232d3a"/>
      <stop offset=".8" stop-color="#2e3945"/>
      <stop offset=".9" stop-color="#3f4954"/>
      <stop offset=".99" stop-color="#555e67"/>
      <stop offset="1" stop-color="#59626b"/>
    </radialGradient>
    <radialGradient id="o" cx="0" cy="0" r="1" gradientTransform="translate(23.905 38.012)scale(1.012)" gradientUnits="userSpaceOnUse">
      <stop offset=".03" stop-color="#59626b" stop-opacity=".4"/>
      <stop offset=".42" stop-color="#4a545e" stop-opacity=".4"/>
      <stop offset=".94" stop-color="#202b37" stop-opacity=".4"/>
      <stop offset="1" stop-color="#1a2532" stop-opacity=".4"/>
    </radialGradient>
    <radialGradient id="p" cx="0" cy="0" r="1" gradientTransform="rotate(-40.82 44.21 -20.23)scale(14.423 26.8268)" gradientUnits="userSpaceOnUse">
      <stop stop-color="#8eb5d5"/>
      <stop offset=".53" stop-color="#7696b1"/>
      <stop offset=".85" stop-color="#6b88a0"/>
    </radialGradient>
    <radialGradient id="z" cx="0" cy="0" r="1" gradientTransform="rotate(80.159 -3.14 25.981)scale(1.49792 1.92627)" gradientUnits="userSpaceOnUse">
      <stop stop-color="#f5f8f6"/>
      <stop offset=".2" stop-color="#ecefed"/>
      <stop offset=".53" stop-color="#d5d7d6"/>
      <stop offset=".85" stop-color="#b8bab9"/>
    </radialGradient>
    <linearGradient id="q" x1="7.612" x2="16.14" y1="31.195" y2="31.195" gradientUnits="userSpaceOnUse">
      <stop stop-color="#b8bab9"/>
      <stop offset=".23" stop-color="#bec0bf"/>
      <stop offset=".53" stop-color="#cfd1d0"/>
      <stop offset=".88" stop-color="#eaedeb"/>
      <stop offset="1" stop-color="#f5f8f6"/>
    </linearGradient>
    <linearGradient id="r" x1="5.2" x2="14.791" y1="24" y2="24" gradientUnits="userSpaceOnUse">
      <stop stop-color="#b8bab9"/>
      <stop offset=".23" stop-color="#bec0bf"/>
      <stop offset=".53" stop-color="#cfd1d0"/>
      <stop offset=".88" stop-color="#eaedeb"/>
      <stop offset="1" stop-color="#f5f8f6"/>
    </linearGradient>
    <linearGradient id="s" x1="7.612" x2="16.139" y1="17" y2="17" gradientUnits="userSpaceOnUse">
      <stop stop-color="#b8bab9"/>
      <stop offset=".23" stop-color="#bec0bf"/>
      <stop offset=".53" stop-color="#cfd1d0"/>
      <stop offset=".88" stop-color="#eaedeb"/>
      <stop offset="1" stop-color="#f5f8f6"/>
    </linearGradient>
    <linearGradient id="t" x1="14.2" x2="19.8" y1="11.876" y2="11.876" gradientUnits="userSpaceOnUse">
      <stop stop-color="#b8bab9"/>
      <stop offset=".23" stop-color="#bec0bf"/>
      <stop offset=".53" stop-color="#cfd1d0"/>
      <stop offset=".88" stop-color="#eaedeb"/>
      <stop offset="1" stop-color="#f5f8f6"/>
    </linearGradient>
    <linearGradient id="u" x1="14.2" x2="19.8" y1="36.305" y2="36.305" gradientUnits="userSpaceOnUse">
      <stop stop-color="#b8bab9"/>
      <stop offset=".23" stop-color="#bec0bf"/>
      <stop offset=".53" stop-color="#cfd1d0"/>
      <stop offset=".88" stop-color="#eaedeb"/>
      <stop offset="1" stop-color="#f5f8f6"/>
    </linearGradient>
    <linearGradient id="v" x1="23.2" x2="24.8" y1="42.411" y2="42.411" gradientUnits="userSpaceOnUse">
      <stop stop-color="#b8bab9"/>
      <stop offset=".23" stop-color="#bec0bf"/>
      <stop offset=".53" stop-color="#cfd1d0"/>
      <stop offset=".88" stop-color="#eaedeb"/>
      <stop offset="1" stop-color="#f5f8f6"/>
    </linearGradient>
    <pattern id="w" width="1" height="1" patternContentUnits="objectBoundingBox">
      <use xlink:href="#A" transform="scale(.00136 .0014)"/>
    </pattern>
    <pattern id="x" width="1" height="1" patternContentUnits="objectBoundingBox">
      <use xlink:href="#B" transform="scale(.00123 .00131)"/>
    </pattern>
    <pattern id="y" width="1" height="1" patternContentUnits="objectBoundingBox">
      <use xlink:href="#C" transform="scale(.00262)"/>
    </pattern>

  </defs>
</svg>