<svg xmlns="http://www.w3.org/2000/svg" width="24" height="24" fill="none">
  <path stroke="#181C20" stroke-linecap="round" stroke-linejoin="round" stroke-width="1.5" d="M6.752 3.001v2.25M17.252 3v2.25M3 18.75V7.499a2.25 2.25 0 0 1 2.25-2.25h13.5A2.25 2.25 0 0 1 21 7.499V18.75m-18 0A2.25 2.25 0 0 0 5.25 21h13.5A2.25 2.25 0 0 0 21 18.75m-18 0v-7.5A2.25 2.25 0 0 1 5.25 9h13.5A2.25 2.25 0 0 1 21 11.25v7.5m-6.75-6h2.25M7.5 15H12m.002-2.25h.006v.005h-.006v-.005Zm0 4.5h.005v.006h-.006v-.006Zm-2.251.001h.006v.006H9.75v-.006Zm-2.25 0h.005v.005h-.005v-.006Zm6.75-2.247h.006v.005h-.006v-.005Zm0 2.247h.006v.006h-.005v-.006Zm2.251-2.249h.006v.006h-.006v-.006Z"/>
</svg>