<svg xmlns="http://www.w3.org/2000/svg" width="24" height="24" fill="none">
  <path stroke="#181C20" stroke-linecap="round" stroke-linejoin="round" stroke-width="1.5" d="M18 18.344a9.094 9.094 0 0 0 3.74-.478 3 3 0 0 0-4.682-2.72M18 18.345v.031c0 .225-.012.447-.036.666a11.944 11.944 0 0 1-5.964 1.584c-2.17 0-4.206-.576-5.963-1.584a6.062 6.062 0 0 1-.037-.697m12 0a5.971 5.971 0 0 0-.94-3.197m0 0a5.995 5.995 0 0 0-5.06-2.772 5.995 5.995 0 0 0-5.058 2.772m0 0a3 3 0 0 0-4.681 2.72 8.986 8.986 0 0 0 3.74.477m.941-3.197A5.971 5.971 0 0 0 6 18.344m9-11.969a3 3 0 1 1-6 0 3 3 0 0 1 6 0Zm6 3a2.25 2.25 0 1 1-4.5 0 2.25 2.25 0 0 1 4.5 0Zm-13.5 0a2.25 2.25 0 1 1-4.5 0 2.25 2.25 0 0 1 4.5 0Z"/>
</svg>