<svg xmlns="http://www.w3.org/2000/svg" width="24" height="24" fill="none">
  <path fill="#101C2B" d="M11.47 3.905a.75.75 0 0 1 1.06 0l8.69 8.69a.75.75 0 1 0 1.06-1.061l-8.689-8.69a2.25 2.25 0 0 0-3.182 0l-8.69 8.69a.75.75 0 0 0 1.061 1.06l8.69-8.689Z"/>
  <path fill="#101C2B" d="m12 5.496 8.159 8.16c.03.03.06.058.091.085v6.198c0 1.036-.84 1.875-1.875 1.875H15a.75.75 0 0 1-.75-.75v-4.5a.75.75 0 0 0-.75-.75h-3a.75.75 0 0 0-.75.75v4.5a.75.75 0 0 1-.75.75H5.625A1.875 1.875 0 0 1 3.75 19.94v-6.197l.091-.087L12 5.496Z"/>
</svg>