<svg xmlns="http://www.w3.org/2000/svg" width="24" height="24" fill="none">
  <path fill="#101C2B" d="M12.002 12a.75.75 0 0 0-.75.75v.005c0 .414.336.75.75.75h.006a.75.75 0 0 0 .75-.75v-.005a.75.75 0 0 0-.75-.75h-.006ZM12.002 16.5a.75.75 0 0 0-.75.75v.006c0 .414.335.75.75.75h.005a.75.75 0 0 0 .75-.75v-.006a.75.75 0 0 0-.75-.75h-.005ZM9 17.25a.75.75 0 0 1 .75-.75h.006a.75.75 0 0 1 .75.75v.006a.75.75 0 0 1-.75.75h-.005a.75.75 0 0 1-.75-.75v-.005ZM7.5 16.5a.75.75 0 0 0-.75.75v.006c0 .414.337.75.75.75h.006a.75.75 0 0 0 .75-.75v-.006a.75.75 0 0 0-.75-.75h-.005ZM13.5 15.003a.75.75 0 0 1 .75-.75h.007a.75.75 0 0 1 .75.75v.006a.75.75 0 0 1-.75.75h-.006a.75.75 0 0 1-.75-.75v-.006ZM14.252 16.5a.75.75 0 0 0-.75.75v.006c0 .415.335.75.75.75h.005a.75.75 0 0 0 .75-.75v-.005a.75.75 0 0 0-.75-.75h-.005ZM15.752 15.002a.75.75 0 0 1 .75-.75h.005a.75.75 0 0 1 .75.75v.005a.75.75 0 0 1-.75.75h-.005a.75.75 0 0 1-.75-.75v-.005ZM13.5 12.75a.75.75 0 0 1 .75-.75h2.25a.75.75 0 0 1 0 1.5h-2.25a.75.75 0 0 1-.75-.75ZM6.75 15a.75.75 0 0 1 .75-.75H12a.75.75 0 0 1 0 1.5H7.5a.75.75 0 0 1-.75-.75Z"/>
  <path fill="#101C2B" fill-rule="evenodd" d="M18.002 3a.75.75 0 1 0-1.5 0v1.499h-9V3a.75.75 0 0 0-1.5 0V4.5H5.25a3 3 0 0 0-3 3V18.75a3 3 0 0 0 3 3h13.5a3 3 0 0 0 3-3V7.5a3 3 0 0 0-3-3h-.748v-1.5ZM3.75 18.75v-7.5a1.5 1.5 0 0 1 1.5-1.5h13.5a1.5 1.5 0 0 1 1.5 1.5v7.5a1.5 1.5 0 0 1-1.5 1.5H5.25a1.5 1.5 0 0 1-1.5-1.5Z" clip-rule="evenodd"/>
</svg>